<svg width="17" height="17" viewBox="0 0 17 17" fill="none" xmlns="http://www.w3.org/2000/svg">
    <g clip-path="url(#clip0_6_192)">
        <path d="M3.3375 0.881836H13.675C15.2375 0.881836 16.5125 2.14434 16.5125 3.71934V13.6568C16.5125 15.2193 15.25 16.4943 13.675 16.4943H3.3375C1.7625 16.4818 0.5 15.2193 0.5 13.6443V3.71934C0.5 2.14434 1.7625 0.881836 3.3375 0.881836Z" fill="#330000"/>
        <path d="M8.2375 10.2194H5.75L5.25 11.7819C5.2375 11.8444 5.1875 11.8819 5.125 11.8694H3.875C3.8 11.8694 3.7875 11.8319 3.8 11.7444L5.95 5.56936C5.975 5.50686 5.9875 5.43186 6.0125 5.34436C6.0375 5.20686 6.05 5.05686 6.05 4.90686C6.0375 4.86936 6.075 4.84436 6.1 4.83186H7.825C7.875 4.83186 7.9 4.85686 7.9125 4.88186L10.35 11.7444C10.375 11.8194 10.35 11.8569 10.2875 11.8569H8.8875C8.8375 11.8694 8.8 11.8319 8.775 11.7819L8.2375 10.2194ZM6.1375 8.85686H7.825C7.7875 8.71936 7.7375 8.54436 7.675 8.38186C7.6125 8.20686 7.55 8.00686 7.5 7.80686C7.4375 7.59436 7.375 7.39436 7.3125 7.19436C7.25 6.98186 7.1875 6.79436 7.1375 6.60686C7.0875 6.41936 7.0375 6.24436 6.9875 6.08186H6.975C6.9125 6.36936 6.8375 6.65686 6.75 6.94436C6.65 7.26936 6.55 7.59436 6.4375 7.93186C6.3375 8.26936 6.2375 8.58186 6.1375 8.85686ZM11.8375 6.01936C11.6125 6.03186 11.4 5.94436 11.25 5.78186C11.1 5.61936 11.0125 5.39436 11.025 5.16936C11.0125 4.94436 11.1 4.73186 11.2625 4.58186C11.425 4.43186 11.6375 4.34436 11.85 4.34436C12.1125 4.34436 12.3125 4.41936 12.4625 4.58186C12.6125 4.74436 12.6875 4.95686 12.6875 5.16936C12.7 5.39436 12.6125 5.61936 12.45 5.78186C12.2875 5.94436 12.0625 6.03186 11.8375 6.01936ZM11.0875 11.8069V6.66936C11.0875 6.60686 11.1125 6.58186 11.175 6.58186H12.5C12.5625 6.58186 12.5875 6.61936 12.5875 6.66936V11.8069C12.5875 11.8819 12.5625 11.9194 12.5 11.9194H11.1875C11.125 11.9069 11.0875 11.8694 11.0875 11.8069Z" fill="#FF9A00"/>
    </g>
    <defs>
        <clipPath id="clip0_6_192">
            <rect width="16" height="16" fill="white" transform="translate(0.5 0.681885)"/>
        </clipPath>
    </defs>
</svg>
