<svg width="20" height="20" viewBox="0 0 20 20" fill="none" xmlns="http://www.w3.org/2000/svg">
    <path d="M7.625 2.55688H10V7.30688H7.625C6.99511 7.30688 6.39102 7.05666 5.94562 6.61126C5.50022 6.16586 5.25 5.56177 5.25 4.93188C5.25 4.302 5.50022 3.6979 5.94562 3.25251C6.39102 2.80711 6.99511 2.55688 7.625 2.55688Z" fill="#F4511E"/>
    <path d="M12.375 7.30688H10V2.55688H12.375C13.0049 2.55688 13.609 2.80711 14.0544 3.25251C14.4998 3.6979 14.75 4.302 14.75 4.93188C14.75 5.56177 14.4998 6.16586 14.0544 6.61126C13.609 7.05666 13.0049 7.30688 12.375 7.30688Z" fill="#FF8A65"/>
    <path d="M10 9.68188C10 10.9936 11.0633 12.0569 12.375 12.0569C13.6867 12.0569 14.75 10.9936 14.75 9.68188C14.75 8.37021 13.6867 7.30688 12.375 7.30688C11.0633 7.30688 10 8.37021 10 9.68188Z" fill="#29B6F6"/>
    <path d="M7.625 7.30688H10V12.0569H7.625C6.99511 12.0569 6.39102 11.8067 5.94562 11.3613C5.50022 10.9159 5.25 10.3118 5.25 9.68188C5.25 9.052 5.50022 8.4479 5.94562 8.00251C6.39102 7.55711 6.99511 7.30688 7.625 7.30688Z" fill="#7C4DFF"/>
    <path d="M7.625 12.0569H10V14.4319C10 15.0618 9.74978 15.6659 9.30438 16.1113C8.85898 16.5567 8.25489 16.8069 7.625 16.8069C6.99511 16.8069 6.39102 16.5567 5.94562 16.1113C5.50022 15.6659 5.25 15.0618 5.25 14.4319C5.25 13.802 5.50022 13.1979 5.94562 12.7525C6.39102 12.3071 6.99511 12.0569 7.625 12.0569Z" fill="#00E676"/>
</svg>
