<svg width="88" height="18" viewBox="0 0 88 18" fill="none" xmlns="http://www.w3.org/2000/svg">
    <g clip-path="url(#clip0_113_174)">
        <path d="M52.3698 7.9193C52.8067 7.9193 53.1586 8.25648 53.1526 8.67147C53.1465 9.23054 53.1344 9.93659 53.1071 10.2046C52.2818 19.1614 38.8768 21.0288 35.2479 12.487C31.4097 3.45245 43.249 -4.23631 50.4158 2.65129C50.9346 3.14985 51.411 3.634 50.9194 4.25072C49.3568 6.20749 46.6503 6.5389 44.5173 5.20749C42.6149 4.02305 41.2222 1.04611 38.8161 3.69164C37.1473 5.52737 37.7086 8.34005 39.1954 10.1239C40.2391 11.3746 43.7072 14.0115 45.2364 14.634C47.3421 15.4928 49.3295 14.3602 50.3642 12.585C51.6446 10.3862 50.9407 9.52449 48.3859 9.73487C47.1479 9.83861 44.3808 10.8674 43.4796 9.93083C43.2035 9.64265 43.2005 8.88184 43.3219 8.3804C43.3856 8.1268 43.6678 7.9193 43.9439 7.9193H52.3667H52.3698Z" fill="black"/>
        <path d="M15.2922 0.129684H11.5086C11.1433 0.129684 10.8472 0.410958 10.8472 0.757927V5.83574C10.8472 6.1827 11.1433 6.46398 11.5086 6.46398H15.2922C15.6575 6.46398 15.9537 6.1827 15.9537 5.83574V0.757927C15.9537 0.410958 15.6575 0.129684 15.2922 0.129684Z" fill="#FF6FB5"/>
        <path d="M15.9537 17.2133C15.9537 17.5879 15.6351 17.8905 15.2406 17.8905H11.5086C11.1445 17.8905 10.8472 17.6081 10.8472 17.2594V11.3458C10.8411 10.2738 10.4284 10.3602 7.67948 10.8184C7.28201 10.8905 7.08478 10.9424 6.83902 10.9971C5.72244 11.2536 5.10347 11.9395 5.10347 13.5072V17.2133C5.10347 17.5879 4.78488 17.8905 4.39044 17.8905H0.661449C0.297349 17.8905 0 17.6081 0 17.2594V0.804036C0 0.432278 0.318588 0.129684 0.709996 0.129684H4.39651C4.78792 0.129684 5.10651 0.432278 5.10651 0.804036V8.15274C5.10651 8.95677 5.50702 9.06052 6.03496 8.99136C7.58542 8.7781 7.97683 8.70317 9.26635 8.50432C13.8601 7.79827 15.9537 7.66283 15.9537 10.5187V17.2104V17.2133Z" fill="black"/>
        <path d="M28.1723 0.129684H24.7285C24.4766 0.129684 24.2521 0.273777 24.1611 0.495679L17.3555 17.0951C17.1977 17.4755 17.492 17.8905 17.9228 17.8905H21.934C22.2192 17.8905 22.4711 17.7032 22.5317 17.438C22.8139 16.2133 23.8334 12.683 26.813 12.1182C27.4956 11.9885 28.1874 12.3458 28.4696 12.951C28.4726 12.9597 28.4787 12.9712 28.4817 12.9798C28.8914 13.8761 29.9351 16.5274 30.3356 17.5043C30.4267 17.7262 30.6542 17.8732 30.906 17.8732H35.166C35.5969 17.8732 35.8942 17.4582 35.7334 17.0778L33.2211 11.0836C31.877 7.98559 27.3864 9.80404 25.8906 10.3977L23.1355 11.5389C22.3952 11.8329 21.7793 11.2133 22.0554 10.4957L24.1399 5.10663C24.1399 5.10663 24.1459 5.09222 24.149 5.08646C24.3522 4.59366 25.1078 4.64553 25.2655 5.15274L25.9725 7.42651C26.021 7.70893 26.2759 7.91643 26.5763 7.91643H30.991C31.4249 7.91643 31.7192 7.50144 31.5584 7.12104L28.8489 0.697408C28.8398 0.677235 28.8307 0.65418 28.8185 0.634007L28.7063 0.438042C28.6001 0.250722 28.3938 0.135448 28.1692 0.135448L28.1723 0.129684Z" fill="black"/>
        <path d="M62.962 0.129684H59.5183C59.2664 0.129684 59.0419 0.273777 58.9509 0.495679L52.1452 17.0951C51.9874 17.4755 52.2818 17.8905 52.7126 17.8905H56.7238C57.009 17.8905 57.2608 17.7032 57.3215 17.438C57.6037 16.2133 58.6232 12.683 61.6027 12.1182C62.2854 11.9885 62.9772 12.3458 63.2594 12.951C63.2624 12.9597 63.2685 12.9712 63.2715 12.9798C63.6811 13.8761 64.7249 16.5274 65.1254 17.5043C65.2164 17.7262 65.444 17.8732 65.6958 17.8732H69.9558C70.3866 17.8732 70.684 17.4582 70.5232 17.0778L68.0109 11.0836C66.6668 7.98559 62.1762 9.80404 60.6803 10.3977L57.9253 11.5389C57.185 11.8329 56.569 11.2133 56.8452 10.4957L58.9296 5.10663C58.9296 5.10663 58.9357 5.09222 58.9387 5.08646C59.142 4.59366 59.8975 4.64553 60.0553 5.15274L60.7623 7.42651C60.8108 7.70893 61.0657 7.91643 61.3661 7.91643H65.7808C66.2147 7.91643 66.509 7.50144 66.3482 7.12104L63.6387 0.697408C63.6296 0.677235 63.6204 0.65418 63.6083 0.634007L63.496 0.438042C63.3899 0.250722 63.1835 0.135448 62.959 0.135448L62.962 0.129684Z" fill="black"/>
        <path d="M77.3774 9.55908V9.70894C77.3713 9.61672 77.3774 9.55908 77.3774 9.55908Z" fill="black"/>
        <path d="M83.8341 12.2306C83.7339 12.1095 83.7916 11.9251 83.9494 11.8847C88.003 10.8127 88.003 6.63689 88.003 6.63689C88.003 3.04611 84.9385 0.132568 81.1549 0.132568H72.9718C72.5864 0.132568 72.2739 0.429398 72.2739 0.795393V17.2306C72.2739 17.5965 72.5864 17.8934 72.9718 17.8934H76.6825C77.0679 17.8934 77.3804 17.5965 77.3804 17.2306V13.4438C77.3804 13.0634 77.341 12.4582 77.7384 12.4582C78.233 12.4582 78.4788 12.8934 78.9369 13.3285L82.3443 17.4957C82.5506 17.7464 82.8631 17.8934 83.1969 17.8934H87.3659C87.8483 17.8934 88.1183 17.3631 87.8179 17.0058L83.8341 12.2334V12.2306ZM77.3774 8.1758V2.92219C77.3774 1.91931 78.1663 1.66283 80.2143 2.04611C82.2624 2.43228 82.6143 4.61095 82.6143 4.61095C83.476 9.96542 81.6555 10.1902 79.3799 10.6859C77.6444 11.0634 77.3774 10.1412 77.3774 9.5562V8.17291V8.1758Z" fill="black"/>
        <path d="M77.3774 9.55908V9.70894C77.3713 9.61672 77.3774 9.55908 77.3774 9.55908Z" fill="black"/>
    </g>
    <defs>
        <clipPath id="clip0_113_174">
            <rect width="88" height="18" fill="white"/>
        </clipPath>
    </defs>
</svg>
