<svg width="30" height="31" viewBox="0 0 30 31" fill="none" xmlns="http://www.w3.org/2000/svg">
    <path d="M21.8672 14.8345C21.9141 14.9048 22.0312 14.8579 22.0312 14.7876C22.1719 13.522 22.5469 10.0298 25.0312 9.27978C25.8281 9.04541 26.625 9.60791 26.7187 10.3345C26.8828 11.5063 25.5469 14.5298 25.6641 17.2954C25.6875 17.7407 26.4375 22.4517 24.4453 25.2407C22.4531 28.0298 17.7187 30.8657 13.0078 26.5532C10.5703 24.3267 10.5703 23.436 7.54687 20.3188C6.9375 19.7095 4.5 17.0376 3.84375 16.2173C2.97656 15.1157 4.35937 13.6626 5.41406 14.4126C5.90625 14.7642 10.2656 18.4204 10.4297 18.5845C10.7578 18.8657 11.1562 18.4673 10.9219 18.186C8.24999 14.6704 5.67187 11.5063 4.96875 10.2876C4.26562 9.06885 5.95312 7.75635 6.9375 8.81103C7.61718 9.51416 12.6562 15.397 12.8906 15.6548C13.125 15.9126 13.5234 15.5845 13.3828 15.2563C13.2187 14.9517 9.14062 7.8501 8.41406 6.23291C7.78125 4.80322 9.89062 3.46728 10.875 4.94385C11.6719 6.11572 16.125 13.522 16.2891 13.7798C16.5 14.1548 16.9687 13.9204 16.7812 13.4985C16.6406 13.1938 13.8984 5.69385 13.6875 4.92041C13.3125 3.56104 15.2578 2.43603 16.1719 3.98291C17.4141 6.11572 19.875 12.6313 21.8672 14.8345Z" fill="#55D8C1"/>
    <mask id="mask0_8_213" style="mask-type:luminance" maskUnits="userSpaceOnUse" x="3" y="3" width="24" height="26">
        <path d="M21.8672 14.8345C21.9141 14.9048 22.0312 14.8579 22.0312 14.7876C22.1719 13.522 22.5469 10.0298 25.0312 9.27978C25.8281 9.04541 26.625 9.60791 26.7187 10.3345C26.8828 11.5063 25.5469 14.5298 25.6641 17.2954C25.6875 17.7407 26.4375 22.4517 24.4453 25.2407C22.4531 28.0298 17.7187 30.8657 13.0078 26.5532C10.5703 24.3267 10.5703 23.436 7.54687 20.3188C6.9375 19.7095 4.5 17.0376 3.84375 16.2173C2.97656 15.1157 4.35937 13.6626 5.41406 14.4126C5.90625 14.7642 10.2656 18.4204 10.4297 18.5845C10.7578 18.8657 11.1562 18.4673 10.9219 18.186C8.24999 14.6704 5.67187 11.5063 4.96875 10.2876C4.26562 9.06885 5.95312 7.75635 6.9375 8.81103C7.61718 9.51416 12.6562 15.397 12.8906 15.6548C13.125 15.9126 13.5234 15.5845 13.3828 15.2563C13.2187 14.9517 9.14062 7.8501 8.41406 6.23291C7.78125 4.80322 9.89062 3.46728 10.875 4.94385C11.6719 6.11572 16.125 13.522 16.2891 13.7798C16.5 14.1548 16.9687 13.9204 16.7812 13.4985C16.6406 13.1938 13.8984 5.69385 13.6875 4.92041C13.3125 3.56104 15.2578 2.43603 16.1719 3.98291C17.4141 6.11572 19.875 12.6313 21.8672 14.8345Z" fill="white"/>
    </mask>
    <g mask="url(#mask0_8_213)">
        <path d="M21.375 14.8813C18.4688 17.2485 17.1797 20.6235 19.5703 24.1392C19.7813 24.4438 20.2266 24.1626 20.0391 23.811C19.0547 22.0532 18.3281 18.8892 21.7266 15.5845C22.125 15.772 22.5938 15.3735 22.6172 15.022C22.875 12.8188 23.1328 10.9907 24.7734 9.95947C25.4063 9.56104 26.2266 9.84229 26.2734 10.8032C26.2734 10.8032 26.7891 10.8501 27 10.8735C27.1172 10.3813 27.3516 9.49072 27.3516 9.46728C27.3516 9.44385 24.5859 8.4126 24.5859 8.4126L22.1719 10.8032L21.375 14.8813ZM16.6875 13.9204C17.0156 13.7563 17.2969 13.4985 17.1563 13.147C17.0156 12.772 14.4141 5.69385 14.25 5.15479C13.9219 4.17041 14.7422 3.39697 15.4688 3.7251C15.8672 3.9126 16.0547 3.27978 15.8438 3.18603C15.6328 3.09228 15.1406 2.64697 14.1563 3.13916C12.3984 4.02979 13.4297 5.99854 13.8984 7.14697C14.3672 8.29541 16.6875 13.9204 16.6875 13.9204ZM13.2891 15.6782C13.6875 15.397 13.9922 15.1626 13.6406 14.6001C13.4063 14.2251 9.44532 7.02979 9.04688 6.32666C8.46094 5.31885 9.67969 4.42822 10.3594 5.06103C10.6641 5.34228 11.1328 4.73291 10.8984 4.49853C10.6641 4.26416 9.84376 3.58447 8.81251 4.26416C7.78126 4.94385 7.75782 5.76416 7.89845 6.11572C8.01563 6.46728 13.2891 15.6782 13.2891 15.6782ZM10.9453 18.561C11.2266 18.1392 11.4141 17.9282 11.0156 17.3892C10.6172 16.8501 5.88282 10.6626 5.62501 10.311C4.96876 9.44385 5.9297 8.69385 6.39844 8.95166C6.84376 9.20947 7.10157 8.48291 6.72657 8.29541C6.35157 8.10791 5.7422 7.89697 5.1797 8.29541C4.6172 8.69385 4.28907 9.51416 4.38282 9.98291C4.45313 10.4517 10.9453 18.561 10.9453 18.561Z" fill="#4BBFAB"/>
        <path d="M21.75 27.397C17.9531 29.2017 15.1172 27.7954 13.2891 26.0142C11.2031 23.9751 10.2188 22.1001 8.83594 20.8345C8.36719 20.3892 4.66406 16.4517 4.21875 15.772C3.86719 15.2095 4.57031 14.2485 5.34375 14.7876C5.83594 15.1157 6.07031 14.4126 5.74219 14.2251C5.41406 14.0376 4.6875 13.6392 3.91406 14.2251C3.14063 14.7876 3.11719 15.7954 3.30469 16.1235C3.49219 16.4517 14.8828 29.5298 14.8828 29.5298L19.5234 29.4126L22.0078 27.8892L21.75 27.397Z" fill="#4BBFAB"/>
    </g>
    <mask id="mask1_8_213" style="mask-type:luminance" maskUnits="userSpaceOnUse" x="3" y="3" width="24" height="26">
        <path d="M21.8672 14.8345C21.9141 14.9048 22.0312 14.8579 22.0312 14.7876C22.1719 13.522 22.5469 10.0298 25.0312 9.27978C25.8281 9.04541 26.625 9.60791 26.7187 10.3345C26.8828 11.5063 25.5469 14.5298 25.6641 17.2954C25.6875 17.7407 26.4375 22.4517 24.4453 25.2407C22.4531 28.0298 17.7187 30.8657 13.0078 26.5532C10.5703 24.3267 10.5703 23.436 7.54687 20.3188C6.9375 19.7095 4.5 17.0376 3.84375 16.2173C2.97656 15.1157 4.35937 13.6626 5.41406 14.4126C5.90625 14.7642 10.2656 18.4204 10.4297 18.5845C10.7578 18.8657 11.1562 18.4673 10.9219 18.186C8.24999 14.6704 5.67187 11.5063 4.96875 10.2876C4.26562 9.06885 5.95312 7.75635 6.9375 8.81103C7.61718 9.51416 12.6562 15.397 12.8906 15.6548C13.125 15.9126 13.5234 15.5845 13.3828 15.2563C13.2187 14.9517 9.14062 7.8501 8.41406 6.23291C7.78125 4.80322 9.89062 3.46728 10.875 4.94385C11.6719 6.11572 16.125 13.522 16.2891 13.7798C16.5 14.1548 16.9687 13.9204 16.7812 13.4985C16.6406 13.1938 13.8984 5.69385 13.6875 4.92041C13.3125 3.56104 15.2578 2.43603 16.1719 3.98291C17.4141 6.11572 19.875 12.6313 21.8672 14.8345Z" fill="white"/>
    </mask>
    <g mask="url(#mask1_8_213)">
        <path d="M26.1328 9.20947C26.25 9.51416 26.3906 10.0532 26.25 10.7798C25.7109 13.4985 24.8203 15.0923 25.1016 18.022C25.6172 23.647 23.6484 27.9126 16.875 28.7563C16.1953 28.8501 16.3828 29.3657 16.7344 29.3188C16.8984 29.2954 21.7266 28.4282 21.7266 28.4282C21.7266 28.4282 26.2031 24.6079 26.2031 24.561C26.2031 24.5142 27.3281 9.93603 27.3281 9.93603L26.1328 9.20947ZM14.4141 3.23291C14.7187 3.27979 15.375 3.5376 15.8437 4.45166C16.3125 5.36572 18.6094 10.6392 18.9141 11.2017C19.2187 11.7642 20.4609 14.5532 21.4687 15.397C21.7969 15.6548 21.9609 15.2095 21.9609 15.2095L21.9844 14.4829L16.5469 2.10791L14.7422 2.17822L14.4141 3.23291ZM16.6875 13.9204C16.2422 14.1313 15.9141 14.3188 15.5859 13.8032C15.375 13.4282 13.1016 9.5376 10.2422 4.99072C10.0078 4.63916 9.46874 4.33447 9.04687 4.49853C8.62499 4.68603 8.53124 4.14697 8.74218 4.02979C8.95312 3.9126 10.2656 3.18604 11.1562 4.68604C12.0469 6.18604 16.6875 13.9204 16.6875 13.9204ZM13.2891 15.6782C12.9375 15.936 12.5859 16.2642 12.1406 15.7251C11.7187 15.2095 6.91405 9.49072 6.6328 9.13916C6.35155 8.7876 5.76562 8.48291 5.3203 8.76416C5.01562 8.95166 4.73437 8.38916 4.92187 8.24854C5.10937 8.10791 6.16405 7.17041 6.86718 7.96728C7.5703 8.76416 13.2891 15.6782 13.2891 15.6782ZM10.9453 18.561C10.6406 18.8892 10.3125 19.0767 9.86718 18.7485C9.42187 18.4204 5.43749 15.0688 5.17968 14.8345C4.92187 14.6001 4.17187 14.2485 3.60937 14.811C3.39843 15.022 3.02343 14.6704 3.23437 14.4595C3.4453 14.2251 4.59374 13.0532 5.5078 13.8267C6.42187 14.6001 10.9453 18.561 10.9453 18.561Z" fill="#4BBFAB"/>
    </g>
    <path d="M2.48438 19.8267C3.21094 21.9829 4.3125 23.3188 6.11719 24.5376C6.44531 24.772 6.25781 25.2407 5.88281 25.0767C4.19531 24.397 2.32031 22.897 1.875 19.9204C1.80469 19.522 2.36719 19.4517 2.48438 19.8267ZM3.89063 18.5376C4.61719 20.6938 5.71875 22.0298 7.52344 23.2485C7.85156 23.4829 7.66406 23.9517 7.28906 23.7876C5.60156 23.1079 3.72656 21.6079 3.28125 18.6313C3.23438 18.2329 3.77344 18.1626 3.89063 18.5376ZM21.9141 8.88135C21.3516 6.67822 20.3203 5.27197 18.6094 3.95947C18.2812 3.7251 18.5156 3.25635 18.8906 3.42041C20.5312 4.19385 22.3125 5.83447 22.5469 8.83447C22.5703 9.23291 22.0078 9.27979 21.9141 8.88135ZM23.4375 7.75635C22.875 5.55322 21.8438 4.14697 20.1328 2.83447C19.8047 2.6001 20.0391 2.13135 20.4141 2.29541C22.0547 3.06885 23.8359 4.70947 24.0703 7.70947C24.0938 8.08447 23.5547 8.13135 23.4375 7.75635Z" fill="#B0BEC5"/>
</svg>
