<svg width="30" height="31" viewBox="0 0 30 31" fill="none" xmlns="http://www.w3.org/2000/svg">
    <path fill-rule="evenodd" clip-rule="evenodd" d="M15 1.74438C22.4213 1.74438 28.4375 7.76063 28.4375 15.1819C28.4375 22.6031 22.4213 28.6194 15 28.6194C12.675 28.6194 10.4875 28.0281 8.57876 26.9881L2.65376 27.9819C2.50772 28.0063 2.35799 27.9957 2.21682 27.9511C2.07565 27.9064 1.94706 27.829 1.84158 27.7251C1.73609 27.6212 1.65672 27.4938 1.60995 27.3533C1.56318 27.2128 1.55035 27.0633 1.57251 26.9169L2.57251 20.3044C1.9026 18.6798 1.55939 16.9392 1.56251 15.1819C1.56251 7.76063 7.57876 1.74438 15 1.74438ZM9.92876 8.55688C9.01001 8.55688 8.24876 9.33189 8.39126 10.2894C8.66126 12.0844 9.45876 15.3919 11.8313 17.7819C14.3113 20.2806 17.86 21.3494 19.7813 21.7706C20.7763 21.9894 21.625 21.2019 21.625 20.2306V17.9506C21.625 17.8749 21.6021 17.8009 21.5593 17.7384C21.5164 17.6759 21.4557 17.6279 21.385 17.6006L18.935 16.6594C18.8689 16.6341 18.7969 16.628 18.7275 16.6419L16.2563 17.1244C14.6625 16.2994 13.6975 15.3744 13.1188 13.9806L13.5838 11.4619C13.5962 11.3949 13.5902 11.3257 13.5663 11.2619L12.6475 8.80063C12.6208 8.72926 12.5731 8.6677 12.5105 8.62416C12.448 8.58061 12.3737 8.55715 12.2975 8.55688H9.92876Z" fill="white"/>
</svg>
