<svg width="25" height="25" viewBox="0 0 25 25" fill="none" xmlns="http://www.w3.org/2000/svg">
    <path d="M13.944 8.43789C13.544 8.64989 13.4 8.99989 13.4 9.96789C13.4 9.96789 13.602 9.77389 13.899 9.66489C14.0822 9.59864 14.2547 9.50599 14.411 9.38989C14.749 9.14289 14.796 8.82789 14.796 8.29389C14.796 8.29389 14.243 8.27789 13.944 8.43789ZM11.595 8.66689C11.275 8.95289 11.177 9.40589 11.177 9.40589L10.099 13.5469L9.21002 10.1519C9.12302 9.79689 8.96402 9.34389 8.71502 9.04489C8.40502 8.66689 7.77102 8.64389 7.70002 8.64389C7.63202 8.64389 6.99102 8.66689 6.67402 9.05089C6.42802 9.35389 6.26802 9.80189 6.18102 10.1589L5.29202 13.5539L4.22602 9.40689C4.22602 9.40689 4.13402 8.94789 3.80802 8.66789C3.27902 8.20289 2.49402 8.30089 2.49402 8.30089L4.54202 16.0649C4.54202 16.0649 5.21902 16.1169 5.55702 15.9389C5.99802 15.7149 6.21602 15.5379 6.48602 14.4759C6.72702 13.5359 7.39802 10.7719 7.46002 10.5709C7.48902 10.4729 7.53002 10.2389 7.70102 10.2389C7.88002 10.2389 7.91502 10.4679 7.94202 10.5709C8.00602 10.7659 8.67102 13.5359 8.91802 14.4759C9.18602 15.5309 9.39902 15.7029 9.84702 15.9389C10.185 16.1169 10.862 16.0649 10.862 16.0649L12.91 8.30589C12.908 8.30589 12.121 8.20689 11.595 8.66689ZM14.796 9.56689C14.796 9.56689 14.667 9.76189 14.376 9.93389C14.188 10.0379 14.009 10.1119 13.814 10.2049C13.491 10.3589 13.4 10.5369 13.4 10.7999V16.0659C13.4 16.0659 13.922 16.1289 14.254 15.9619C14.69 15.7399 14.787 15.5269 14.795 14.5579L14.796 9.56689ZM19.908 12.1989L22.507 8.32389C22.507 8.32389 21.411 8.13489 20.866 8.63289C20.516 8.94789 20.128 9.51789 20.128 9.51789L19.176 10.9039C19.123 10.9729 19.072 11.0539 18.976 11.0539C18.877 11.0539 18.815 10.9789 18.774 10.9039L17.812 9.52189C17.812 9.52189 17.427 8.95389 17.072 8.63789C16.532 8.13889 15.431 8.32789 15.431 8.32789L18.034 12.1929L15.431 16.0509C15.431 16.0509 16.577 16.1999 17.119 15.7009C17.469 15.3859 17.807 14.8639 17.807 14.8639L18.757 13.4809C18.81 13.4129 18.861 13.3339 18.957 13.3339C19.057 13.3339 19.118 13.4089 19.159 13.4809L20.111 14.8639C20.111 14.8639 20.466 15.3739 20.811 15.7009C21.349 16.1999 22.478 16.0509 22.478 16.0509L19.908 12.1989Z" fill="black"/>
</svg>
