<svg width="17" height="17" viewBox="0 0 17 17" fill="none" xmlns="http://www.w3.org/2000/svg">
    <path d="M12.75 0.681885H4.25C2.17893 0.681885 0.5 2.36082 0.5 4.43188V12.9319C0.5 15.003 2.17893 16.6819 4.25 16.6819H12.75C14.8211 16.6819 16.5 15.003 16.5 12.9319V4.43188C16.5 2.36082 14.8211 0.681885 12.75 0.681885Z" fill="#0073AA"/>
    <path d="M3.13837 8.68156C3.13837 10.8038 4.37168 12.6377 6.16006 13.5069L3.60256 6.49962C3.29605 7.18618 3.13787 7.92969 3.13837 8.68156ZM12.1192 8.411C12.1192 7.74844 11.8812 7.28956 11.6771 6.93238C11.4053 6.49075 11.1506 6.11675 11.1506 5.67512C11.1506 5.18225 11.5244 4.7235 12.0509 4.7235C12.0747 4.7235 12.0972 4.72644 12.1204 4.72775C11.1665 3.85388 9.89568 3.32031 8.49981 3.32031C6.62681 3.32031 4.97887 4.28131 4.02024 5.73694C4.14599 5.74069 4.26456 5.74338 4.36524 5.74338C4.92606 5.74338 5.79412 5.67525 5.79412 5.67525C6.08312 5.65825 6.11724 6.08275 5.82849 6.11694C5.82849 6.11694 5.53806 6.15112 5.21487 6.16806L7.16724 11.9754L8.34056 8.4565L7.50524 6.16788C7.21656 6.15094 6.94306 6.11675 6.94306 6.11675C6.65412 6.09981 6.68799 5.65806 6.97693 5.67512C6.97693 5.67512 7.86231 5.74312 8.38912 5.74312C8.94987 5.74312 9.81799 5.67512 9.81799 5.67512C10.1072 5.65806 10.1412 6.08256 9.85237 6.11675C9.85237 6.11675 9.56131 6.15094 9.23874 6.16788L11.1763 11.9312L11.7111 10.1442C11.9429 9.40263 12.1192 8.87 12.1192 8.411Z" fill="white"/>
    <path d="M8.59392 9.1505L6.98529 13.8249C7.47711 13.9697 7.98715 14.0433 8.49985 14.0433C9.10624 14.0435 9.70825 13.9407 10.2802 13.7394C10.2654 13.7159 10.2526 13.6912 10.2421 13.6655L8.59392 9.1505ZM13.2043 6.10925C13.2286 6.29199 13.2407 6.47615 13.2404 6.6605C13.2404 7.20457 13.1388 7.81619 12.8327 8.58094L11.195 13.3159C12.789 12.3864 13.8611 10.6596 13.8611 8.68163C13.8612 7.74944 13.6231 6.87288 13.2043 6.10925Z" fill="white"/>
    <path d="M8.49988 2.43188C5.05375 2.43188 2.25 5.23545 2.25 8.68151C2.25 12.128 5.05375 14.9314 8.49988 14.9314C11.9458 14.9314 14.75 12.128 14.75 8.68151C14.7499 5.23545 11.9458 2.43188 8.49988 2.43188ZM8.49988 14.645C5.21175 14.645 2.53656 11.9698 2.53656 8.68151C2.53656 5.39345 5.21169 2.71845 8.49988 2.71845C11.7878 2.71845 14.4628 5.39345 14.4628 8.68151C14.4628 11.9698 11.7878 14.645 8.49988 14.645Z" fill="white"/>
</svg>
