<svg width="17" height="17" viewBox="0 0 17 17" fill="none" xmlns="http://www.w3.org/2000/svg">
    <g clip-path="url(#clip0_6_170)">
        <path d="M12.75 0.681885H4.25C2.17893 0.681885 0.5 2.36082 0.5 4.43188V12.9319C0.5 15.003 2.17893 16.6819 4.25 16.6819H12.75C14.8211 16.6819 16.5 15.003 16.5 12.9319V4.43188C16.5 2.36082 14.8211 0.681885 12.75 0.681885Z" fill="#470137"/>
        <path d="M8.88995 5.69529L7.01495 8.78904L9.01495 12.0703C9.02745 12.0953 9.0337 12.1203 9.02745 12.1453C9.0212 12.1703 8.9962 12.1515 8.9587 12.1578H7.52745C7.42745 12.1578 7.3587 12.1515 7.31495 12.089C7.1837 11.8265 7.0462 11.5703 6.91495 11.3078C6.7837 11.0515 6.63995 10.789 6.48995 10.5203C6.33995 10.2515 6.18995 9.98279 6.03995 9.70779H6.02745C5.8962 9.97654 5.75245 10.2453 5.6087 10.514C5.46495 10.7828 5.3212 11.0515 5.1837 11.314C5.03995 11.5765 4.8962 11.8453 4.75245 12.1015C4.72745 12.164 4.67745 12.1703 4.6087 12.1703H3.2337C3.2087 12.1703 3.18995 12.1828 3.18995 12.1515C3.1837 12.1265 3.18995 12.1015 3.20245 12.0828L5.1462 8.89529L3.25245 5.68904C3.2337 5.66404 3.22745 5.63904 3.23995 5.62654C3.25245 5.60779 3.27745 5.60154 3.30245 5.60154H4.7212C4.75245 5.60154 4.7837 5.60779 4.8087 5.61404C4.8337 5.62654 4.85245 5.64529 4.8712 5.67029C4.98995 5.93904 5.12745 6.20779 5.2712 6.47654C5.4212 6.74529 5.56495 7.00779 5.7212 7.27029C5.8712 7.53279 6.0087 7.79529 6.13995 8.06404H6.15245C6.2837 7.78904 6.4212 7.52029 6.5587 7.25779C6.6962 6.99529 6.83995 6.73279 6.9837 6.47029C7.12745 6.20779 7.26495 5.93904 7.40245 5.68279C7.4087 5.65779 7.4212 5.63279 7.43995 5.62029C7.46495 5.60779 7.48995 5.60154 7.5212 5.60779H8.83995C8.8712 5.60154 8.90245 5.62029 8.9087 5.65154C8.91495 5.65779 8.90245 5.68279 8.88995 5.69529ZM11.7775 12.2891C11.315 12.2954 10.8525 12.2016 10.4337 12.0079C10.04 11.8266 9.71495 11.5266 9.48995 11.1579C9.2587 10.7766 9.1462 10.3016 9.1462 9.73286C9.13995 9.27036 9.2587 8.81411 9.48995 8.41411C9.72745 8.00786 10.0712 7.67036 10.4837 7.44536C10.9212 7.20161 11.4462 7.08286 12.065 7.08286C12.0962 7.08286 12.14 7.08286 12.1962 7.08911C12.2525 7.09536 12.315 7.09536 12.39 7.10161V5.12661C12.39 5.08286 12.4087 5.05786 12.4525 5.05786H13.7212C13.7525 5.05161 13.7775 5.07661 13.7837 5.10161V11.0641C13.7837 11.1766 13.79 11.3016 13.7962 11.4391C13.8087 11.5704 13.815 11.6954 13.8212 11.8016C13.8212 11.8454 13.8025 11.8829 13.7587 11.9016C13.4337 12.0391 13.09 12.1391 12.74 12.2016C12.4212 12.2579 12.1025 12.2891 11.7775 12.2891ZM12.39 11.0391V8.28911C12.3337 8.27661 12.2775 8.26411 12.2212 8.25786C12.1525 8.25161 12.0837 8.24536 12.015 8.24536C11.7712 8.24536 11.5275 8.29536 11.3087 8.40786C11.0962 8.51411 10.915 8.67036 10.7775 8.87036C10.64 9.07036 10.5712 9.33911 10.5712 9.66411C10.565 9.88286 10.6025 10.1016 10.6775 10.3079C10.74 10.4766 10.8337 10.6266 10.9587 10.7516C11.0775 10.8641 11.2212 10.9516 11.3837 11.0016C11.5525 11.0579 11.7275 11.0829 11.9025 11.0829C11.9962 11.0829 12.0837 11.0766 12.165 11.0704C12.2462 11.0766 12.315 11.0641 12.39 11.0391Z" fill="#FF61F6"/>
    </g>
    <defs>
        <clipPath id="clip0_6_170">
            <rect width="16" height="16" fill="white" transform="translate(0.5 0.681885)"/>
        </clipPath>
    </defs>
</svg>
