<svg width="35" height="36" viewBox="0 0 35 36" fill="none" xmlns="http://www.w3.org/2000/svg">
    <path fill-rule="evenodd" clip-rule="evenodd" d="M5.83335 6.87988C4.76973 6.87988 3.74966 7.30241 2.99756 8.05451C2.24546 8.80661 1.82294 9.82667 1.82294 10.8903V25.4736C1.82294 26.5373 2.24546 27.5573 2.99756 28.3094C3.74966 29.0615 4.76973 29.4841 5.83335 29.4841H29.1667C30.2303 29.4841 31.2504 29.0615 32.0025 28.3094C32.7546 27.5573 33.1771 26.5373 33.1771 25.4736V10.8903C33.1771 9.82667 32.7546 8.80661 32.0025 8.05451C31.2504 7.30241 30.2303 6.87988 29.1667 6.87988H5.83335ZM10.8354 12.9115C10.5977 12.7564 10.309 12.6998 10.0302 12.7536C9.75152 12.8075 9.50466 12.9676 9.34181 13.2001C9.17897 13.4326 9.11291 13.7194 9.1576 13.9997C9.20228 14.28 9.35421 14.532 9.58127 14.7024L16.8729 19.8066C17.0568 19.9352 17.2757 20.0042 17.5 20.0042C17.7244 20.0042 17.9433 19.9352 18.1271 19.8066L25.4188 14.7024C25.5416 14.6222 25.647 14.5182 25.7288 14.3965C25.8106 14.2748 25.8671 14.1379 25.8949 13.9939C25.9228 13.8499 25.9213 13.7018 25.8908 13.5583C25.8602 13.4149 25.8011 13.2791 25.7169 13.159C25.6328 13.0389 25.5254 12.9369 25.4011 12.8591C25.2767 12.7813 25.138 12.7294 24.9932 12.7063C24.8484 12.6832 24.7004 12.6895 24.5581 12.7247C24.4157 12.76 24.2819 12.8235 24.1646 12.9115L17.5 17.5768L10.8354 12.9115Z" fill="white"/>
</svg>
