<svg width="27" height="41" viewBox="0 0 27 41" fill="none" xmlns="http://www.w3.org/2000/svg">
    <path fill-rule="evenodd" clip-rule="evenodd" d="M0 13.5C0 9.91958 1.42232 6.4858 3.95406 3.95406C6.4858 1.42232 9.91958 0 13.5 0C17.0804 0 20.5142 1.42232 23.0459 3.95406C25.5777 6.4858 27 9.91958 27 13.5V27C27 30.5804 25.5777 34.0142 23.0459 36.5459C20.5142 39.0777 17.0804 40.5 13.5 40.5C9.91958 40.5 6.4858 39.0777 3.95406 36.5459C1.42232 34.0142 0 30.5804 0 27V13.5ZM23.625 13.5V27C23.625 29.6853 22.5583 32.2607 20.6595 34.1595C18.7607 36.0583 16.1853 37.125 13.5 37.125C10.8147 37.125 8.23935 36.0583 6.34054 34.1595C4.44174 32.2607 3.375 29.6853 3.375 27V13.5C3.375 10.8147 4.44174 8.23935 6.34054 6.34054C8.23935 4.44174 10.8147 3.375 13.5 3.375C16.1853 3.375 18.7607 4.44174 20.6595 6.34054C22.5583 8.23935 23.625 10.8147 23.625 13.5Z" fill="#EBEEF0"/>
</svg>
