<svg width="17" height="17" viewBox="0 0 17 17" fill="none" xmlns="http://www.w3.org/2000/svg">
    <g clip-path="url(#clip0_6_195)">
        <path d="M3.33337 0.881836H13.6666C15.2334 0.881836 16.5 2.14846 16.5 3.71521V13.6485C16.5 15.2152 15.2334 16.4818 13.6666 16.4818H3.33337C1.76662 16.4818 0.5 15.2152 0.5 13.6485V3.71521C0.5 2.14846 1.76662 0.881836 3.33337 0.881836Z" fill="#001E36"/>
        <path d="M6.23335 4.84851C6.03335 4.84851 5.83335 4.84851 5.62673 4.85526C5.41998 4.86189 5.2266 4.86189 5.0466 4.86864C4.8666 4.87526 4.69998 4.87526 4.53998 4.88189C4.3866 4.88851 4.27998 4.88851 4.1666 4.88851C4.11998 4.88851 4.09998 4.91514 4.09998 4.96189V11.8219C4.09998 11.8819 4.1266 11.9086 4.17998 11.9086H5.47335C5.51998 11.9019 5.55335 11.8619 5.5466 11.8153V9.67526C5.67323 9.67526 5.7666 9.67526 5.83335 9.68189C5.89998 9.68851 6.0066 9.68851 6.1666 9.68851C6.71335 9.68851 7.21335 9.62851 7.6666 9.46189C8.09998 9.30189 8.47335 9.02189 8.73998 8.64851C9.00664 8.27518 9.13998 7.80184 9.13998 7.22851C9.13998 6.92851 9.08673 6.64189 8.98673 6.36189C8.88076 6.07662 8.71477 5.81744 8.49998 5.60189C8.24645 5.35559 7.94128 5.16882 7.6066 5.05514C7.23323 4.91514 6.77998 4.84851 6.23335 4.84851ZM6.3821 6.16164C6.6196 6.16614 6.85085 6.20764 7.0666 6.29514C7.25998 6.36851 7.41998 6.50189 7.53335 6.67514C7.63968 6.85444 7.69287 7.06027 7.68673 7.26864C7.68673 7.56189 7.61998 7.78864 7.47998 7.95526C7.33323 8.12189 7.1466 8.24864 6.93335 8.30864C6.6866 8.38864 6.4266 8.42851 6.1666 8.42851H5.81323C5.73323 8.42851 5.64673 8.42189 5.55335 8.41526V6.17526C5.59998 6.16851 5.69335 6.16189 5.82673 6.16864C5.95335 6.16189 6.1066 6.16189 6.27998 6.16189C6.31414 6.16105 6.34818 6.16097 6.3821 6.16164ZM11.9734 6.50201C11.5 6.50201 11.1066 6.57526 10.7934 6.73526C10.5067 6.86864 10.26 7.08189 10.0934 7.34851C9.94673 7.59526 9.8666 7.86851 9.8666 8.15526C9.8609 8.3911 9.91359 8.6247 10.02 8.83526C10.1447 9.05947 10.3178 9.25304 10.5267 9.40189C10.82 9.60247 11.1382 9.76384 11.4734 9.88189C11.8 10.0085 12.02 10.1085 12.1267 10.1951C12.2334 10.2819 12.2867 10.3685 12.2867 10.4619C12.2867 10.5819 12.2134 10.6953 12.1067 10.7419C11.9867 10.8019 11.8067 10.8353 11.5534 10.8353C11.2867 10.8353 11.02 10.8019 10.7666 10.7353C10.4757 10.6703 10.1967 10.5601 9.93998 10.4086C9.91998 10.3953 9.89998 10.3886 9.87998 10.402C9.85998 10.4153 9.85335 10.4419 9.85335 10.4619V11.6219C9.84673 11.6753 9.87998 11.7219 9.92673 11.7485C10.1429 11.8495 10.3716 11.9213 10.6067 11.9619C10.9067 12.0219 11.2066 12.0485 11.5132 12.0485C11.9932 12.0485 12.3934 11.9753 12.72 11.8353C13.02 11.7153 13.28 11.5086 13.4666 11.2419C13.6414 10.9796 13.7321 10.6704 13.7266 10.3553C13.7332 10.1172 13.6805 9.88128 13.5734 9.66864C13.4466 9.44189 13.2666 9.25526 13.0466 9.11526C12.7248 8.91315 12.3802 8.74976 12.02 8.62851C11.8591 8.56194 11.7012 8.48854 11.5466 8.40851C11.46 8.36189 11.38 8.30189 11.32 8.22851C11.28 8.17514 11.2534 8.11526 11.2534 8.05526C11.2534 7.99526 11.2734 7.92864 11.3066 7.87526C11.3534 7.80864 11.4266 7.76189 11.5132 7.74189C11.64 7.70864 11.78 7.68851 11.9132 7.69514C12.1666 7.69514 12.4132 7.72851 12.66 7.78189C12.8867 7.82851 13.1 7.90189 13.3 8.00864C13.3266 8.02189 13.36 8.02189 13.42 8.00864C13.4304 8.00091 13.4388 7.99085 13.4446 7.97925C13.4504 7.96765 13.4534 7.95485 13.4534 7.94189V6.85526C13.4534 6.82851 13.4466 6.80189 13.44 6.77526C13.4266 6.74864 13.4 6.72189 13.3734 6.71526C13.1895 6.64011 12.9968 6.58857 12.8 6.56189C12.5262 6.52203 12.25 6.5021 11.9734 6.50201Z" fill="#31A8FF"/>
    </g>
    <defs>
        <clipPath id="clip0_6_195">
            <rect width="16" height="16" fill="white" transform="translate(0.5 0.681885)"/>
        </clipPath>
    </defs>
</svg>
